<?xml version="1.0" standalone="no"?><?xml-stylesheet type="text/css" href="https://wps.processon.com/themes/default/wps/mind/icons/icons.css" ?><!DOCTYPE svg PUBLIC "-//W3C//DTD SVG 1.1//EN" "http://www.w3.org/Graphics/SVG/1.1/DTD/svg11.dtd"><svg id="SvgjsSvg1006" width="1050" height="1050" xmlns="http://www.w3.org/2000/svg" version="1.1" xmlns:xlink="http://www.w3.org/1999/xlink" xmlns:svgjs="http://svgjs.com/svgjs"><defs id="SvgjsDefs1007"><pattern patternUnits="userSpaceOnUse" id="pattern_mark_0" width="300" height="300"><text x="150" y="100" fill="rgba(229,229,229,0.8)" font-size="18" transform="rotate(-45, 150, 150)" style="dominant-baseline: middle; text-anchor: middle;"></text></pattern><pattern patternUnits="userSpaceOnUse" id="pattern_mark_1" width="300" height="300"><text x="150" y="200" fill="rgba(229,229,229,0.8)" font-size="18" transform="rotate(-45, 150, 150)" style="dominant-baseline: middle; text-anchor: middle;"></text></pattern><marker id="SvgjsMarker1085" markerWidth="14" markerHeight="10" refX="10" refY="5" viewBox="0 0 14 10" orient="auto" markerUnits="userSpaceOnUse" stroke-dasharray="0,0"><path id="SvgjsPath1086" d="M0,0 L14,5 L0,10 L0,0" fill="#323232" stroke="#323232" stroke-width="1"></path></marker><marker id="SvgjsMarker1089" markerWidth="14" markerHeight="10" refX="10" refY="5" viewBox="0 0 14 10" orient="auto" markerUnits="userSpaceOnUse" stroke-dasharray="0,0"><path id="SvgjsPath1090" d="M0,0 L14,5 L0,10 L0,0" fill="#323232" stroke="#323232" stroke-width="1"></path></marker><marker id="SvgjsMarker1131" markerWidth="14" markerHeight="10" refX="10" refY="5" viewBox="0 0 14 10" orient="auto" markerUnits="userSpaceOnUse" stroke-dasharray="0,0"><path id="SvgjsPath1132" d="M0,0 L14,5 L0,10 L0,0" fill="#323232" stroke="#323232" stroke-width="1"></path></marker><marker id="SvgjsMarker1135" markerWidth="14" markerHeight="10" refX="10" refY="5" viewBox="0 0 14 10" orient="auto" markerUnits="userSpaceOnUse" stroke-dasharray="0,0"><path id="SvgjsPath1136" d="M0,0 L14,5 L0,10 L0,0" fill="#323232" stroke="#323232" stroke-width="1"></path></marker><marker id="SvgjsMarker1147" markerWidth="14" markerHeight="10" refX="10" refY="5" viewBox="0 0 14 10" orient="auto" markerUnits="userSpaceOnUse" stroke-dasharray="0,0"><path id="SvgjsPath1148" d="M0,0 L14,5 L0,10 L0,0" fill="#323232" stroke="#323232" stroke-width="1"></path></marker><marker id="SvgjsMarker1151" markerWidth="14" markerHeight="10" refX="10" refY="5" viewBox="0 0 14 10" orient="auto" markerUnits="userSpaceOnUse" stroke-dasharray="0,0"><path id="SvgjsPath1152" d="M0,0 L14,5 L0,10 L0,0" fill="#323232" stroke="#323232" stroke-width="1"></path></marker><marker id="SvgjsMarker1155" markerWidth="14" markerHeight="10" refX="10" refY="5" viewBox="0 0 14 10" orient="auto" markerUnits="userSpaceOnUse" stroke-dasharray="0,0"><path id="SvgjsPath1156" d="M0,0 L14,5 L0,10 L0,0" fill="#323232" stroke="#323232" stroke-width="1"></path></marker><marker id="SvgjsMarker1159" markerWidth="14" markerHeight="10" refX="10" refY="5" viewBox="0 0 14 10" orient="auto" markerUnits="userSpaceOnUse" stroke-dasharray="0,0"><path id="SvgjsPath1160" d="M0,0 L14,5 L0,10 L0,0" fill="#323232" stroke="#323232" stroke-width="1"></path></marker><marker id="SvgjsMarker1163" markerWidth="14" markerHeight="10" refX="10" refY="5" viewBox="0 0 14 10" orient="auto" markerUnits="userSpaceOnUse" stroke-dasharray="0,0"><path id="SvgjsPath1164" d="M0,0 L14,5 L0,10 L0,0" fill="#323232" stroke="#323232" stroke-width="1"></path></marker><marker id="SvgjsMarker1173" markerWidth="14" markerHeight="10" refX="10" refY="5" viewBox="0 0 14 10" orient="auto" markerUnits="userSpaceOnUse" stroke-dasharray="0,0"><path id="SvgjsPath1174" d="M0,0 L14,5 L0,10 L0,0" fill="#323232" stroke="#323232" stroke-width="1"></path></marker><marker id="SvgjsMarker1184" markerWidth="14" markerHeight="10" refX="10" refY="5" viewBox="0 0 14 10" orient="auto" markerUnits="userSpaceOnUse" stroke-dasharray="0,0"><path id="SvgjsPath1185" d="M0,0 L14,5 L0,10 L0,0" fill="#323232" stroke="#323232" stroke-width="1"></path></marker><marker id="SvgjsMarker1196" markerWidth="14" markerHeight="10" refX="10" refY="5" viewBox="0 0 14 10" orient="auto" markerUnits="userSpaceOnUse" stroke-dasharray="0,0"><path id="SvgjsPath1197" d="M0,0 L14,5 L0,10 L0,0" fill="#323232" stroke="#323232" stroke-width="1"></path></marker><marker id="SvgjsMarker1208" markerWidth="14" markerHeight="10" refX="10" refY="5" viewBox="0 0 14 10" orient="auto" markerUnits="userSpaceOnUse" stroke-dasharray="0,0"><path id="SvgjsPath1209" d="M0,0 L14,5 L0,10 L0,0" fill="#323232" stroke="#323232" stroke-width="1"></path></marker><marker id="SvgjsMarker1220" markerWidth="14" markerHeight="10" refX="10" refY="5" viewBox="0 0 14 10" orient="auto" markerUnits="userSpaceOnUse" stroke-dasharray="0,0"><path id="SvgjsPath1221" d="M0,0 L14,5 L0,10 L0,0" fill="#323232" stroke="#323232" stroke-width="1"></path></marker></defs><rect id="svgbackgroundid" width="1050" height="1050" fill="transparent"></rect><rect id="SvgjsRect1009" width="1050" height="1050" fill="url(#pattern_mark_0)"></rect><rect id="SvgjsRect1010" width="1050" height="1050" fill="url(#pattern_mark_1)"></rect><g id="SvgjsG1011" transform="translate(25,25)"><path id="SvgjsPath1012" d="M 0 0L 1000 0L 1000 1000L 0 1000Z" stroke="none" fill-opacity="1" fill="#e7e8f0"></path><g id="SvgjsG1013"><text id="SvgjsText1014" font-family="微软雅黑" text-anchor="middle" font-size="13px" width="980px" fill="#323232" font-weight="400" align="middle" lineHeight="125%" anchor="middle" family="微软雅黑" size="13px" weight="400" font-style="" opacity="1" y="489.375" transform="rotate(0)"></text></g></g><g id="SvgjsG1015" transform="translate(110,347)"><path id="SvgjsPath1016" d="M 0 0L 830 0L 830 458L 0 458Z" stroke-dasharray="10,6" stroke="rgba(33,41,48,1)" stroke-width="2" fill-opacity="1" fill="#d2d6f9"></path><g id="SvgjsG1017"><text id="SvgjsText1018" font-family="微软雅黑" text-anchor="middle" font-size="13px" width="810px" fill="#323232" font-weight="400" align="middle" lineHeight="125%" anchor="middle" family="微软雅黑" size="13px" weight="400" font-style="" opacity="1" y="218.375" transform="rotate(0)"></text></g></g><g id="SvgjsG1019" transform="translate(135,542)"><path id="SvgjsPath1020" d="M 0 0L 346 0L 346 167L 0 167Z" stroke-dasharray="10,6" stroke="rgba(33,41,48,1)" stroke-width="2" fill-opacity="1" fill="#e5f6da"></path><g id="SvgjsG1021"><text id="SvgjsText1022" font-family="微软雅黑" text-anchor="middle" font-size="13px" width="326px" fill="#323232" font-weight="400" align="middle" lineHeight="125%" anchor="middle" family="微软雅黑" size="13px" weight="400" font-style="" opacity="1" y="72.875" transform="rotate(0)"></text></g></g><g id="SvgjsG1023" transform="translate(345,69)"><path id="SvgjsPath1024" d="M 31.666666666666668 0L 328.3333333333333 0C 370.55555555555554 0 370.55555555555554 95 328.3333333333333 95L 31.666666666666668 95C -10.555555555555555 95 -10.555555555555555 0 31.666666666666668 0Z" stroke="rgba(33,41,48,1)" stroke-width="2" fill-opacity="1" fill="#ffffff"></path><g id="SvgjsG1025"><text id="SvgjsText1026" font-family="微软雅黑" text-anchor="middle" font-size="16px" width="340px" fill="#323232" font-weight="400" align="middle" lineHeight="125%" anchor="middle" family="微软雅黑" size="16px" weight="400" font-style="" opacity="1" y="13.5" transform="rotate(0)"><tspan id="SvgjsTspan1027" dy="20" x="180"><tspan id="SvgjsTspan1028" style="text-decoration:;font-weight: bold;">Prepare data</tspan></tspan><tspan id="SvgjsTspan1029" dy="20" x="180"><tspan id="SvgjsTspan1030" style="text-decoration:;">X_Full_df: </tspan><tspan id="SvgjsTspan1031" style="text-decoration:;fill: rgb(51, 51, 51);">Samples-Features DataFrame</tspan></tspan><tspan id="SvgjsTspan1032" dy="20" x="180"><tspan id="SvgjsTspan1033" style="text-decoration:;">Y_df: </tspan><tspan id="SvgjsTspan1034" style="text-decoration:;fill: rgb(51, 51, 51);">Target Variables DataFrame</tspan></tspan></text></g></g><g id="SvgjsG1035" transform="translate(423,191)"><path id="SvgjsPath1036" d="M 0 4Q 0 0 4 0L 200 0Q 204 0 204 4L 204 49Q 204 53 200 53L 4 53Q 0 53 0 49Z" stroke="rgba(33,41,48,1)" stroke-width="2" fill-opacity="1" fill="#ffffff"></path><g id="SvgjsG1037"><text id="SvgjsText1038" font-family="微软雅黑" text-anchor="middle" font-size="16px" width="184px" fill="#323232" font-weight="400" align="middle" lineHeight="125%" anchor="middle" family="微软雅黑" size="16px" weight="400" font-style="" opacity="1" y="12.5" transform="rotate(0)"><tspan id="SvgjsTspan1039" dy="20" x="102"><tspan id="SvgjsTspan1040" style="text-decoration:;">select a binary variable</tspan></tspan></text></g></g><g id="SvgjsG1041" transform="translate(412,271)"><path id="SvgjsPath1042" d="M 0 4Q 0 0 4 0L 222 0Q 226 0 226 4L 226 54Q 226 58 222 58L 4 58Q 0 58 0 54Z" stroke="rgba(33,41,48,1)" stroke-width="2" fill-opacity="1" fill="#ffffff"></path><g id="SvgjsG1043"><text id="SvgjsText1044" font-family="微软雅黑" text-anchor="middle" font-size="16px" width="206px" fill="#323232" font-weight="400" align="middle" lineHeight="125%" anchor="middle" family="微软雅黑" size="16px" weight="400" font-style="" opacity="1" y="5" transform="rotate(0)"><tspan id="SvgjsTspan1045" dy="20" x="113"><tspan id="SvgjsTspan1046" style="text-decoration:;fill: rgb(51, 51, 51);">Building corresponding </tspan></tspan><tspan id="SvgjsTspan1047" dy="20" x="113"><tspan id="SvgjsTspan1048" style="text-decoration:;fill: rgb(51, 51, 51);">data from X_Full_df</tspan></tspan></text></g></g><g id="SvgjsG1049" transform="translate(216,477)"><path id="SvgjsPath1050" d="M 0 4Q 0 0 4 0L 180 0Q 184 0 184 4L 184 51Q 184 55 180 55L 4 55Q 0 55 0 51Z" stroke="rgba(33,41,48,1)" stroke-width="2" fill-opacity="1" fill="#ffffff"></path><g id="SvgjsG1051"><text id="SvgjsText1052" font-family="微软雅黑" text-anchor="middle" font-size="16px" width="164px" fill="#323232" font-weight="700" align="middle" lineHeight="125%" anchor="middle" family="微软雅黑" size="16px" weight="700" font-style="" opacity="1" y="3.5" transform="rotate(0)"><tspan id="SvgjsTspan1053" dy="20" x="92"><tspan id="SvgjsTspan1054" style="text-decoration:;">K-fold</tspan></tspan><tspan id="SvgjsTspan1055" dy="20" x="92"><tspan id="SvgjsTspan1056" style="text-decoration:;">cross-validation</tspan></tspan></text></g></g><g id="SvgjsG1057" transform="translate(151,571)"><path id="SvgjsPath1058" d="M 0 4Q 0 0 4 0L 139 0Q 143 0 143 4L 143 40Q 143 44 139 44L 4 44Q 0 44 0 40Z" stroke="rgba(33,41,48,1)" stroke-width="2" fill-opacity="1" fill="#e74f4c"></path><g id="SvgjsG1059"><text id="SvgjsText1060" font-family="微软雅黑" text-anchor="middle" font-size="16px" width="123px" fill="#ffffff" font-weight="700" align="middle" lineHeight="125%" anchor="middle" family="微软雅黑" size="16px" weight="700" font-style="" opacity="1" y="8" transform="rotate(0)"><tspan id="SvgjsTspan1061" dy="20" x="71.5"><tspan id="SvgjsTspan1062" style="text-decoration:;">Training set</tspan></tspan></text></g></g><g id="SvgjsG1063" transform="translate(322,571)"><path id="SvgjsPath1064" d="M 0 4Q 0 0 4 0L 139 0Q 143 0 143 4L 143 40Q 143 44 139 44L 4 44Q 0 44 0 40Z" stroke="rgba(33,41,48,1)" stroke-width="2" fill-opacity="1" fill="#d2d6f9"></path><g id="SvgjsG1065"><text id="SvgjsText1066" font-family="微软雅黑" text-anchor="middle" font-size="16px" width="123px" fill="#323232" font-weight="700" align="middle" lineHeight="125%" anchor="middle" family="微软雅黑" size="16px" weight="700" font-style="" opacity="1" y="8" transform="rotate(0)"><tspan id="SvgjsTspan1067" dy="20" x="71.5"><tspan id="SvgjsTspan1068" style="text-decoration:;">Validation set</tspan></tspan></text></g></g><g id="SvgjsG1069" transform="translate(151,636)"><path id="SvgjsPath1070" d="M 0 4Q 0 0 4 0L 139 0Q 143 0 143 4L 143 52Q 143 56 139 56L 4 56Q 0 56 0 52Z" stroke="rgba(33,41,48,1)" stroke-width="2" fill-opacity="1" fill="#ffffff"></path><g id="SvgjsG1071"><text id="SvgjsText1072" font-family="微软雅黑" text-anchor="middle" font-size="16px" width="123px" fill="#323232" font-weight="400" align="middle" lineHeight="125%" anchor="middle" family="微软雅黑" size="16px" weight="400" font-style="" opacity="1" y="4" transform="rotate(0)"><tspan id="SvgjsTspan1073" dy="20" x="71.5"><tspan id="SvgjsTspan1074" style="text-decoration:;">Build prediction</tspan></tspan><tspan id="SvgjsTspan1075" dy="20" x="71.5"><tspan id="SvgjsTspan1076" style="text-decoration:;"> model</tspan></tspan></text></g></g><g id="SvgjsG1077" transform="translate(322,642)"><path id="SvgjsPath1078" d="M 0 4Q 0 0 4 0L 139 0Q 143 0 143 4L 143 40Q 143 44 139 44L 4 44Q 0 44 0 40Z" stroke="rgba(33,41,48,1)" stroke-width="2" fill-opacity="1" fill="#ffffff"></path><g id="SvgjsG1079"><text id="SvgjsText1080" font-family="微软雅黑" text-anchor="middle" font-size="16px" width="123px" fill="#323232" font-weight="400" align="middle" lineHeight="125%" anchor="middle" family="微软雅黑" size="16px" weight="400" font-style="" opacity="1" y="8" transform="rotate(0)"><tspan id="SvgjsTspan1081" dy="20" x="71.5"><tspan id="SvgjsTspan1082" style="text-decoration:;">Prediction</tspan></tspan></text></g></g><g id="SvgjsG1083"><path id="SvgjsPath1084" d="M307.6740646429559 532.9453920578409C 308 569.589892258425 222.5 533.410107741575 223.67336728535884 567.5965885917731" stroke="#323232" stroke-width="2" fill="none" marker-end="url(#SvgjsMarker1085)"></path></g><g id="SvgjsG1087"><path id="SvgjsPath1088" d="M308.3259353570441 532.9453920578409C 308 569.589892258425 393.5 533.410107741575 392.32663271464116 567.596588591773" stroke="#323232" stroke-width="2" fill="none" marker-end="url(#SvgjsMarker1089)"></path></g><g id="SvgjsG1091" transform="translate(569,542)"><path id="SvgjsPath1092" d="M 0 0L 346 0L 346 167L 0 167Z" stroke-dasharray="10,6" stroke="rgba(33,41,48,1)" stroke-width="2" fill-opacity="1" fill="#e5f6da"></path><g id="SvgjsG1093"><text id="SvgjsText1094" font-family="微软雅黑" text-anchor="middle" font-size="13px" width="326px" fill="#323232" font-weight="400" align="middle" lineHeight="125%" anchor="middle" family="微软雅黑" size="13px" weight="400" font-style="" opacity="1" y="72.875" transform="rotate(0)"></text></g></g><g id="SvgjsG1095" transform="translate(650,477)"><path id="SvgjsPath1096" d="M 0 4Q 0 0 4 0L 180 0Q 184 0 184 4L 184 51Q 184 55 180 55L 4 55Q 0 55 0 51Z" stroke="rgba(33,41,48,1)" stroke-width="2" fill-opacity="1" fill="#ffffff"></path><g id="SvgjsG1097"><text id="SvgjsText1098" font-family="微软雅黑" text-anchor="middle" font-size="16px" width="164px" fill="#323232" font-weight="700" align="middle" lineHeight="125%" anchor="middle" family="微软雅黑" size="16px" weight="700" font-style="" opacity="1" y="3.5" transform="rotate(0)"><tspan id="SvgjsTspan1099" dy="20" x="92"><tspan id="SvgjsTspan1100" style="text-decoration:;">K-fold</tspan></tspan><tspan id="SvgjsTspan1101" dy="20" x="92"><tspan id="SvgjsTspan1102" style="text-decoration:;">cross-validation</tspan></tspan></text></g></g><g id="SvgjsG1103" transform="translate(585,571)"><path id="SvgjsPath1104" d="M 0 4Q 0 0 4 0L 139 0Q 143 0 143 4L 143 40Q 143 44 139 44L 4 44Q 0 44 0 40Z" stroke="rgba(33,41,48,1)" stroke-width="2" fill-opacity="1" fill="#e74f4c"></path><g id="SvgjsG1105"><text id="SvgjsText1106" font-family="微软雅黑" text-anchor="middle" font-size="16px" width="123px" fill="#ffffff" font-weight="700" align="middle" lineHeight="125%" anchor="middle" family="微软雅黑" size="16px" weight="700" font-style="" opacity="1" y="8" transform="rotate(0)"><tspan id="SvgjsTspan1107" dy="20" x="71.5"><tspan id="SvgjsTspan1108" style="text-decoration:;">Training set</tspan></tspan></text></g></g><g id="SvgjsG1109" transform="translate(756,571)"><path id="SvgjsPath1110" d="M 0 4Q 0 0 4 0L 139 0Q 143 0 143 4L 143 40Q 143 44 139 44L 4 44Q 0 44 0 40Z" stroke="rgba(33,41,48,1)" stroke-width="2" fill-opacity="1" fill="#d2d6f9"></path><g id="SvgjsG1111"><text id="SvgjsText1112" font-family="微软雅黑" text-anchor="middle" font-size="16px" width="123px" fill="#323232" font-weight="700" align="middle" lineHeight="125%" anchor="middle" family="微软雅黑" size="16px" weight="700" font-style="" opacity="1" y="8" transform="rotate(0)"><tspan id="SvgjsTspan1113" dy="20" x="71.5"><tspan id="SvgjsTspan1114" style="text-decoration:;">Validation set</tspan></tspan></text></g></g><g id="SvgjsG1115" transform="translate(585,636)"><path id="SvgjsPath1116" d="M 0 4Q 0 0 4 0L 139 0Q 143 0 143 4L 143 52Q 143 56 139 56L 4 56Q 0 56 0 52Z" stroke="rgba(33,41,48,1)" stroke-width="2" fill-opacity="1" fill="#ffffff"></path><g id="SvgjsG1117"><text id="SvgjsText1118" font-family="微软雅黑" text-anchor="middle" font-size="16px" width="123px" fill="#323232" font-weight="400" align="middle" lineHeight="125%" anchor="middle" family="微软雅黑" size="16px" weight="400" font-style="" opacity="1" y="4" transform="rotate(0)"><tspan id="SvgjsTspan1119" dy="20" x="71.5"><tspan id="SvgjsTspan1120" style="text-decoration:;">Build prediction</tspan></tspan><tspan id="SvgjsTspan1121" dy="20" x="71.5"><tspan id="SvgjsTspan1122" style="text-decoration:;"> model</tspan></tspan></text></g></g><g id="SvgjsG1123" transform="translate(756,642)"><path id="SvgjsPath1124" d="M 0 4Q 0 0 4 0L 139 0Q 143 0 143 4L 143 40Q 143 44 139 44L 4 44Q 0 44 0 40Z" stroke="rgba(33,41,48,1)" stroke-width="2" fill-opacity="1" fill="#ffffff"></path><g id="SvgjsG1125"><text id="SvgjsText1126" font-family="微软雅黑" text-anchor="middle" font-size="16px" width="123px" fill="#323232" font-weight="400" align="middle" lineHeight="125%" anchor="middle" family="微软雅黑" size="16px" weight="400" font-style="" opacity="1" y="8" transform="rotate(0)"><tspan id="SvgjsTspan1127" dy="20" x="71.5"><tspan id="SvgjsTspan1128" style="text-decoration:;">Prediction</tspan></tspan></text></g></g><g id="SvgjsG1129"><path id="SvgjsPath1130" d="M741.6740646429558 532.9453920578409C 742 569.589892258425 656.5 533.410107741575 657.6733672853588 567.596588591773" stroke="#323232" stroke-width="2" fill="none" marker-end="url(#SvgjsMarker1131)"></path></g><g id="SvgjsG1133"><path id="SvgjsPath1134" d="M742.3259353570442 532.9453920578409C 742 569.589892258425 827.5 533.410107741575 826.3266327146412 567.5965885917731" stroke="#323232" stroke-width="2" fill="none" marker-end="url(#SvgjsMarker1135)"></path></g><g id="SvgjsG1137" transform="translate(650,399)"><path id="SvgjsPath1138" d="M 0 4Q 0 0 4 0L 180 0Q 184 0 184 4L 184 51Q 184 55 180 55L 4 55Q 0 55 0 51Z" stroke="rgba(33,41,48,1)" stroke-width="2" fill-opacity="1" fill="#ffffff"></path><g id="SvgjsG1139"><text id="SvgjsText1140" font-family="微软雅黑" text-anchor="middle" font-size="16px" width="164px" fill="#323232" font-weight="700" align="middle" lineHeight="125%" anchor="middle" family="微软雅黑" size="16px" weight="700" font-style="" opacity="1" y="3.5" transform="rotate(0)"><tspan id="SvgjsTspan1141" dy="20" x="92"><tspan id="SvgjsTspan1142" style="text-decoration:;">Randomly </tspan></tspan><tspan id="SvgjsTspan1143" dy="20" x="92"><tspan id="SvgjsTspan1144" style="text-decoration:;">shuffle data</tspan></tspan></text></g></g><g id="SvgjsG1145"><path id="SvgjsPath1146" d="M742 455C 742 463.20000000000005 742 467.79999999999995 742 473.4" stroke="#323232" stroke-width="2" fill="none" marker-end="url(#SvgjsMarker1147)"></path></g><g id="SvgjsG1149"><path id="SvgjsPath1150" d="M525 330L525 370L742 370L742 395.4" stroke="#323232" stroke-width="2" fill="none" marker-end="url(#SvgjsMarker1151)"></path></g><g id="SvgjsG1153"><path id="SvgjsPath1154" d="M525 330L525 370L308 370L308 473.4" stroke="#323232" stroke-width="2" fill="none" marker-end="url(#SvgjsMarker1155)"></path></g><g id="SvgjsG1157"><path id="SvgjsPath1158" d="M525 245L525 257.5L525 257.5L525 267.4" stroke="#323232" stroke-width="2" fill="none" marker-end="url(#SvgjsMarker1159)"></path></g><g id="SvgjsG1161"><path id="SvgjsPath1162" d="M525 165L525 187.4" stroke="#323232" stroke-width="2" fill="none" marker-end="url(#SvgjsMarker1163)"></path></g><g id="SvgjsG1165" transform="translate(197.5,739)"><path id="SvgjsPath1166" d="M 0 4Q 0 0 4 0L 217 0Q 221 0 221 4L 221 44Q 221 48 217 48L 4 48Q 0 48 0 44Z" stroke="rgba(33,41,48,1)" stroke-width="2" fill-opacity="1" fill="#ffffff"></path><g id="SvgjsG1167"><text id="SvgjsText1168" font-family="微软雅黑" text-anchor="middle" font-size="16px" width="201px" fill="#323232" font-weight="400" align="middle" lineHeight="125%" anchor="middle" family="微软雅黑" size="16px" weight="400" font-style="" opacity="1" y="10" transform="rotate(0)"><tspan id="SvgjsTspan1169" dy="20" x="110.5"><tspan id="SvgjsTspan1170" style="text-decoration:;">True classifier prediction</tspan></tspan></text></g></g><g id="SvgjsG1171"><path id="SvgjsPath1172" d="M308 710L308 724L308 724L308 735.4" stroke-dasharray="8,5" stroke="#323232" stroke-width="2" fill="none" marker-end="url(#SvgjsMarker1173)"></path></g><g id="SvgjsG1175" transform="translate(615.25,739)"><path id="SvgjsPath1176" d="M 0 4Q 0 0 4 0L 249.5 0Q 253.5 0 253.5 4L 253.5 44Q 253.5 48 249.5 48L 4 48Q 0 48 0 44Z" stroke="rgba(33,41,48,1)" stroke-width="2" fill-opacity="1" fill="#ffffff"></path><g id="SvgjsG1177"><text id="SvgjsText1178" font-family="微软雅黑" text-anchor="middle" font-size="16px" width="234px" fill="#323232" font-weight="400" align="middle" lineHeight="125%" anchor="middle" family="微软雅黑" size="16px" weight="400" font-style="" opacity="1" y="10" transform="rotate(0)"><tspan id="SvgjsTspan1179" dy="20" x="127"><tspan id="SvgjsTspan1180" style="text-decoration:;fill: rgb(50, 50, 50);">Shuffled</tspan><tspan id="SvgjsTspan1181" style="text-decoration:;"> classifier prediction</tspan></tspan></text></g></g><g id="SvgjsG1182"><path id="SvgjsPath1183" d="M742 710L742 724L742 724L742 735.4" stroke-dasharray="8,5" stroke="#323232" stroke-width="2" fill="none" marker-end="url(#SvgjsMarker1184)"></path></g><g id="SvgjsG1186" transform="translate(364.5,894)"><path id="SvgjsPath1187" d="M 0 4Q 0 0 4 0L 317 0Q 321 0 321 4L 321 76Q 321 80 317 80L 4 80Q 0 80 0 76Z" stroke="rgba(33,41,48,1)" stroke-width="2" fill-opacity="1" fill="#ffffff"></path><g id="SvgjsG1188"><text id="SvgjsText1189" font-family="微软雅黑" text-anchor="middle" font-size="16px" width="301px" fill="#323232" font-weight="400" align="middle" lineHeight="125%" anchor="middle" family="微软雅黑" size="16px" weight="400" font-style="" opacity="1" y="16" transform="rotate(0)"><tspan id="SvgjsTspan1190" dy="20" x="160.5"><tspan id="SvgjsTspan1191" style="text-decoration:;">Compute mean AUROC &amp; feature-</tspan></tspan><tspan id="SvgjsTspan1192" dy="20" x="160.5"><tspan id="SvgjsTspan1193" style="text-decoration:;">importances from N x K-fold CVs</tspan></tspan></text></g></g><g id="SvgjsG1194"><path id="SvgjsPath1195" d="M525 806L525 849.5L525 849.5L525 890.4" stroke="#323232" stroke-width="2" fill="none" marker-end="url(#SvgjsMarker1196)"></path></g><g id="SvgjsG1198"><path id="SvgjsPath1199" d="M525 806L525 849.5L639 849.5" stroke="#323232" stroke-width="2" fill="none"></path></g><g id="SvgjsG1200" transform="translate(640,823)"><path id="SvgjsPath1201" d="M 0 4Q 0 0 4 0L 200 0Q 204 0 204 4L 204 49Q 204 53 200 53L 4 53Q 0 53 0 49Z" stroke="rgba(33,41,48,1)" stroke-width="2" fill-opacity="1" fill="#ffffff"></path><g id="SvgjsG1202"><text id="SvgjsText1203" font-family="微软雅黑" text-anchor="middle" font-size="16px" width="184px" fill="#323232" font-weight="400" align="middle" lineHeight="125%" anchor="middle" family="微软雅黑" size="16px" weight="400" font-style="" opacity="1" y="12.5" transform="rotate(0)"><tspan id="SvgjsTspan1204" dy="20" x="102"><tspan id="SvgjsTspan1205" style="text-decoration:;">N repeats of K-fold CV</tspan></tspan></text></g></g><g id="SvgjsG1206"><path id="SvgjsPath1207" d="M845 849.5L970 849.5L970 576L943.6 576" stroke="#323232" stroke-width="2" fill="none" marker-end="url(#SvgjsMarker1208)"></path></g><g id="SvgjsG1210" transform="translate(738,909.5)"><path id="SvgjsPath1211" d="M 0 4Q 0 0 4 0L 224 0Q 228 0 228 4L 228 45Q 228 49 224 49L 4 49Q 0 49 0 45Z" stroke="rgba(33,41,48,1)" stroke-width="2" fill-opacity="1" fill="#ffffff"></path><g id="SvgjsG1212"><text id="SvgjsText1213" font-family="微软雅黑" text-anchor="middle" font-size="16px" width="208px" fill="#323232" font-weight="400" align="middle" lineHeight="125%" anchor="middle" family="微软雅黑" size="16px" weight="400" font-style="" opacity="1" y="10.5" transform="rotate(0)"><tspan id="SvgjsTspan1214" dy="20" x="114"><tspan id="SvgjsTspan1215" style="text-decoration:;">Repeat for each variable</tspan></tspan></text></g></g><g id="SvgjsG1216"><path id="SvgjsPath1217" d="M686.5 934L711.75 934L711.75 934L737 934" stroke="#323232" stroke-width="2" fill="none"></path></g><g id="SvgjsG1218"><path id="SvgjsPath1219" d="M967 934L996 934L996 300L641.6 300" stroke="#323232" stroke-width="2" fill="none" marker-end="url(#SvgjsMarker1220)"></path></g><g id="normal_brand" transform="translate(400,563)"><text id="SvgjsText1223" font-family="Helvetica, Arial, sans-serif" style="transform:rotate(-30deg);opacity: 0.06; color:#000; font-family: Microsoft Yahei;"><tspan id="SvgjsTspan1224" font-size="48" dy="0" x="0"></tspan></text></g></svg>